<svg xmlns="http://www.w3.org/2000/svg" xmlns:xlink="http://www.w3.org/1999/xlink" width="24" height="24"><defs><path id="a" d="M6.715 14.673l10.154 2.167.43-2.085L7.145 12.59l-.43 2.084zm1.343-4.937l9.402 4.47.86-1.92L8.918 7.79l-.86 1.947zm2.606-4.717l7.978 6.774 1.316-1.618-7.978-6.774-1.316 1.618zM15.82 0l-1.665 1.262 6.178 8.502L22 8.502 15.821 0zM6.5 19.5v-2.112h10.37V19.5H6.5zm12.395 2.382V15.5H21V24H2v-8.5h2.105v6.382h14.79z"/></defs><g fill="none" fill-rule="evenodd"><g transform="translate(-2)"><mask id="b" fill="#fff"><use xlink:href="#a"/></mask><use fill-rule="nonzero" xlink:href="#a"/><path fill="#5f6368" fill-rule="nonzero" d="M0 0h24v24H0z" mask="url(#b)"/></g><path d="M-2 0h24v24H-2z"/></g></svg>